HIERARCHY
ROOT Hips
{
  OFFSET 155.048 98.1286 3.93448
  CHANNELS 6 Xposition Yposition Zposition Zrotation Xrotation Yrotation
  JOINT RightUpLeg
  {
    OFFSET -8.9458 -8.66707 0.101652
    CHANNELS 3 Zrotation Xrotation Yrotation
    JOINT RightLeg
    {
      OFFSET 0 -44.4227 1.3727
      CHANNELS 3 Zrotation Xrotation Yrotation
      JOINT RightFoot
      {
        OFFSET 0.253549 -42.0924 -1.46059
        CHANNELS 3 Zrotation Xrotation Yrotation
        JOINT RightToes
        {
          OFFSET 0.04 -4.41509 8.4991
          CHANNELS 3 Zrotation Xrotation Yrotation
          End Site
          {
            OFFSET -0.08 -0.137448 9.77979
          }
        }
      }
    }
  }
  JOINT Spine
  {
    OFFSET 0 11.8905 0
    CHANNELS 3 Zrotation Xrotation Yrotation
    JOINT Spine1
    {
      OFFSET 0 25.6574 0.127663
      CHANNELS 3 Zrotation Xrotation Yrotation
      JOINT Head
      {
        OFFSET 0 8.73416 0.011341
        CHANNELS 3 Zrotation Xrotation Yrotation
        End Site
        {
          OFFSET -0.29 12.7742 2.51395
        }
      }
      JOINT LeftShoulder1
      {
        OFFSET 8.99 -0.362252 -0.22
        CHANNELS 3 Zrotation Xrotation Yrotation
        JOINT LeftArm
        {
          OFFSET 10.2827 -0.00337999 0.322123
          CHANNELS 3 Zrotation Xrotation Yrotation
          JOINT LeftForeArm
          {
            OFFSET 26.2597 0.099144 -1.42434
            CHANNELS 3 Zrotation Xrotation Yrotation
            JOINT LeftHand
            {
              OFFSET 22.0902 0.085362 1.02216
              CHANNELS 3 Zrotation Xrotation Yrotation
              End Site
              {
                OFFSET 13.419 -0.6 1.50291
              }
            }
          }
        }
      }
      JOINT RightShoulder
      {
        OFFSET -8.99 -0.362252 -0.22
        CHANNELS 3 Zrotation Xrotation Yrotation
        JOINT RightArm
        {
          OFFSET -10.2827 -0.00338 0.322123
          CHANNELS 3 Zrotation Xrotation Yrotation
          JOINT RightForeArm
          {
            OFFSET -26.364 0.099144 -1.42434
            CHANNELS 3 Zrotation Xrotation Yrotation
            JOINT RightHand
            {
              OFFSET -22.0324 0.085362 1.02216
              CHANNELS 3 Zrotation Xrotation Yrotation
              End Site
              {
                OFFSET -13.3284 -0.6 1.50291
              }
            }
          }
        }
      }
    }
  }
  JOINT LeftUpLeg
  {
    OFFSET 8.9458 -8.66707 0.101652
    CHANNELS 3 Zrotation Xrotation Yrotation
    JOINT LeftLeg
    {
      OFFSET 0 -44.4227 1.3727
      CHANNELS 3 Zrotation Xrotation Yrotation
      JOINT LeftFoot
      {
        OFFSET -0.253549 -42.0924 -1.46059
        CHANNELS 3 Zrotation Xrotation Yrotation
        JOINT LeftToes
        {
          OFFSET -0.04 -4.41509 8.4991
          CHANNELS 3 Zrotation Xrotation Yrotation
          End Site
          {
            OFFSET 0.08 -0.047448 9.77979
          }
        }
      }
    }
  }
}
MOTION
Frames:	19
Frame Time:	0.0333333
168.765 100.391 -0.964148 1.60013 -0.225129 -96.3953 0.051166 -5.51836 -5.1263 -1.05103 10.1021 -7.8871 1.98683 -5.82315 -0.184399 0.0462048 0.000530889 0.662642 3.15694 -15.6462 -0.359379 -0.218941 26.8703 -0.773649 2.42747 -13.6923 -3.88296 -40.1066 8.40929 -14.5098 -43.4478 -39.192 -12.0798 -14.1908 24.9166 -4.28727 21.0706 9.09589 0.888827 49.3721 12.7782 18.5053 17.7622 -49.2749 -11.2124 5.51376 24.5545 8.31338 -4.84212 9.57633 3.67153 0.106651 -6.48773 4.09265 1.38448 11.8473 20.04 -3.43886 -5.93501 0.0617 -1.29604e-009 8.75243e-006 -1.45933e-008 
168.705 100.386 -0.942748 1.61732 -0.203368 -96.5584 0.0795107 -5.51912 -5.08485 -1.07952 10.1044 -7.76919 1.99375 -5.82238 -0.184399 0.0462048 0.000530889 0.662642 2.93094 -15.5165 -0.324678 0.202825 26.6011 -0.871519 2.33315 -13.1627 -3.66741 -40.4402 8.55339 -14.6776 -42.7218 -37.7489 -11.5149 -13.9975 23.4693 -5.2428 21.2461 9.08382 0.859966 49.1658 12.6877 18.4392 17.6384 -49.0858 -11.5539 5.54864 24.3655 8.60041 -4.95879 9.57837 3.47291 0.132925 -6.49472 4.13144 1.36866 11.9452 20.1575 -3.42154 -6.02343 0.06171 -1.29604e-009 8.75243e-006 -1.45933e-008 
168.577 100.374 -0.896795 1.62128 -0.176667 -96.7778 0.0810332 -5.48442 -5.07889 -1.09819 10.1388 -7.55682 2.05361 -5.86946 -0.184415 0.0462048 0.000530889 0.662642 2.54631 -15.4549 -0.354211 0.825138 26.3775 -1.08689 2.25487 -12.4862 -3.29526 -40.9651 8.80278 -14.9834 -41.4831 -34.8733 -10.5689 -13.6045 20.5077 -7.12679 21.5176 9.09105 0.961369 48.914 12.5952 18.3887 17.4272 -48.8612 -11.9647 5.54018 24.0668 9.13562 -5.06692 9.58003 3.30553 0.133391 -6.46531 4.14404 1.3694 12.0912 20.362 -3.3914 -6.16075 0.0617258 -1.29604e-009 8.75243e-006 -1.45933e-008 
168.424 100.365 -0.846314 1.55613 -0.145428 -96.9104 0.0636368 -5.3344 -5.12033 -1.10438 10.1433 -7.39248 2.13318 -5.92671 -0.184434 0.0462048 0.000530889 0.662642 2.28754 -15.5445 -0.460886 1.12248 26.4147 -1.27234 2.32347 -12.0606 -2.99234 -41.2606 8.99988 -15.2688 -40.5122 -32.1884 -9.89591 -13.2698 17.7522 -8.79919 21.5012 9.11857 1.11191 48.8527 12.5814 18.3914 17.3257 -48.8798 -12.0989 5.37673 23.8618 9.78517 -5.07291 9.57959 3.29578 0.0951954 -6.3448 4.11347 1.41072 12.2081 20.5359 -3.36454 -6.26762 0.0617383 -1.29604e-009 8.75243e-006 -1.45933e-008 
168.278 100.363 -0.803512 1.41041 -0.100696 -97.0584 0.0601923 -5.07634 -5.16784 -1.11102 10.0942 -7.21455 2.14366 -5.95029 -0.184441 0.0462048 0.000530889 0.662642 2.30437 -15.6045 -0.518207 0.935069 26.4908 -1.26097 2.40569 -11.6827 -2.8577 -41.1472 9.02906 -15.3757 -40.1697 -30.726 -9.81868 -13.1759 16.4649 -9.5065 21.2021 9.12682 1.09377 48.9549 12.6008 18.3805 17.4321 -49.0373 -11.9675 5.1248 23.6996 10.5261 -5.16512 9.57499 3.23294 0.0664064 -6.11681 4.11382 1.45396 12.2865 20.6954 -3.38088 -6.37146 0.0611002 -1.29604e-009 8.75243e-006 -1.45933e-008 
168.145 100.359 -0.765274 1.24141 -0.0632027 -97.3659 0.0434861 -4.84994 -5.21882 -1.11031 10.1125 -6.85968 2.0925 -5.98517 -0.184453 0.0462048 0.000530889 0.662642 2.47117 -15.5444 -0.44907 0.559811 26.4329 -1.06762 2.31564 -11.1517 -2.85094 -40.7502 8.86946 -15.2104 -40.4795 -30.3149 -10.3646 -13.3025 16.5892 -9.33202 21.1674 9.09908 0.929286 49.0717 12.6047 18.3364 17.5868 -49.0089 -11.7395 4.96058 23.3363 11.3066 -5.40739 9.56323 3.06719 0.059839 -5.8332 4.17473 1.45198 12.3293 20.9564 -3.4325 -6.51118 0.0583899 -1.29604e-009 8.75243e-006 -1.45933e-008 
168.01 100.347 -0.73041 1.11982 -0.0412802 -97.7633 0.0143673 -4.74911 -5.25424 -1.12027 10.2676 -6.41706 2.08217 -6.06213 -0.184479 0.0462048 0.000530889 0.662642 2.56413 -15.528 -0.333335 0.37215 26.4017 -0.887871 2.10855 -10.6474 -2.88672 -40.4037 8.67449 -14.9472 -41.0321 -30.3289 -11.1628 -13.4669 17.2385 -8.89665 21.6645 9.0646 0.846487 49.1534 12.6218 18.3304 17.5693 -48.7325 -11.4901 4.94215 22.7087 12.0233 -5.59604 9.55107 3.02616 0.0604251 -5.5856 4.25182 1.41702 12.3528 21.3062 -3.4735 -6.65611 0.0554957 -1.29604e-009 8.75243e-006 -1.45933e-008 
167.868 100.336 -0.703607 1.05527 -0.00761842 -98.0684 0.0259658 -4.6974 -5.23531 -1.163 10.4335 -6.13119 2.14777 -6.13459 -0.184504 0.0462048 0.000530889 0.662642 2.55944 -15.6923 -0.284651 0.371173 26.5535 -0.841518 1.95997 -10.3523 -2.94317 -40.3887 8.67333 -14.9505 -41.0762 -30.206 -11.521 -13.4832 17.3768 -8.84894 22.0749 9.05311 0.874658 49.2489 12.6887 18.4047 17.4235 -48.4311 -11.1823 4.95303 22.0768 12.6505 -5.65156 9.54081 3.18118 0.0800836 -5.42479 4.32439 1.3865 12.4199 21.5697 -3.51974 -6.79148 0.0523407 -1.29604e-009 8.75243e-006 -1.45933e-008 
167.725 100.325 -0.673487 1.00821 0.0179677 -98.2629 0.0146236 -4.62533 -5.23928 -1.17801 10.5421 -5.93829 2.22819 -6.22302 -0.184535 0.0462048 0.000530889 0.662642 2.5905 -15.9108 -0.31044 0.263903 26.7235 -0.841668 1.89574 -10.1236 -3.03057 -40.603 8.86022 -15.2529 -40.4619 -29.7073 -11.1935 -13.3409 16.6398 -9.33915 21.7235 9.05686 0.816368 49.3724 12.7751 18.4999 17.3723 -48.1972 -10.8124 4.88482 21.6798 13.2773 -5.70502 9.53075 3.33096 0.0974372 -5.32798 4.39788 1.34868 12.5733 21.6896 -3.59963 -6.96254 0.0484974 -1.29604e-009 8.75243e-006 -1.45933e-008 
167.593 100.305 -0.615617 0.978294 -0.0515899 -98.4612 -0.188706 -4.64125 -5.41266 -1.08434 10.7509 -5.55071 2.31176 -6.43058 -0.184609 0.0462048 0.000530889 0.662642 2.65336 -16.021 -0.349024 -0.0251448 26.7072 -0.781098 1.83909 -9.83604 -3.09153 -40.6584 8.95296 -15.4232 -40.0182 -29.0636 -10.8005 -13.2032 15.6474 -9.91342 20.9457 9.06473 0.681499 49.4758 12.83 18.5493 17.4744 -47.904 -10.4308 4.77375 21.4077 13.9578 -5.71843 9.52714 3.39487 0.0155476 -5.27046 4.41994 1.2717 12.7345 21.8354 -3.62968 -7.148 0.0440914 -1.29604e-009 8.75243e-006 -1.45933e-008 
167.479 100.274 -0.527276 1.0342 -0.228369 -98.6718 -0.56227 -4.85619 -5.70993 -0.935178 11.1156 -5.0182 2.45336 -6.71177 -0.184714 0.0462048 0.000530889 0.662642 2.57964 -16.0856 -0.369737 -0.174926 26.5825 -0.72215 1.78467 -9.64496 -3.05152 -40.4453 8.8094 -15.2123 -40.2825 -28.507 -10.9307 -13.1984 15.0232 -10.1627 20.7014 9.08671 0.748931 49.4979 12.8372 18.5519 17.6229 -47.5284 -10.0452 4.71372 21.0198 14.6129 -5.56322 9.5354 3.48412 -0.19629 -5.29375 4.3279 1.18492 12.7897 22.1159 -3.53895 -7.25318 0.0415729 -1.29604e-009 8.75243e-006 -1.45933e-008 
167.382 100.249 -0.426831 1.2098 -0.384793 -98.785 -0.856443 -5.15341 -5.9106 -0.852259 11.3797 -4.70129 2.62555 -6.87575 -0.184454 0.0462048 0.000530889 0.662642 2.33216 -16.2015 -0.379515 0.0565373 26.4932 -0.774175 1.75651 -9.67116 -2.97821 -40.3122 8.64351 -14.9199 -40.6965 -27.8939 -11.2989 -13.2797 14.6132 -10.2325 21.2186 9.12105 1.06422 49.4234 12.8061 18.5311 17.7665 -47.2106 -9.6526 4.71341 20.5333 15.1476 -5.46765 9.53997 3.55425 -0.412174 -5.44088 4.16864 1.15101 12.7795 22.3927 -3.46013 -7.30975 0.0391327 -1.29604e-009 8.75243e-006 -1.45933e-008 
167.29 100.24 -0.308767 1.41016 -0.425107 -98.7603 -0.970159 -5.3139 -5.96444 -0.831578 11.3575 -4.66869 2.73243 -6.89775 -0.183108 0.0462048 0.000530889 0.662642 2.12945 -16.2174 -0.388726 0.406457 26.3415 -0.887117 1.74325 -9.80514 -2.9921 -40.4819 8.66425 -14.8931 -40.6354 -27.223 -11.3296 -13.3116 14.1244 -10.4237 21.7 9.14123 1.2799 49.332 12.7666 18.503 17.8885 -47.0127 -9.33172 4.7052 20.1925 15.5396 -5.74419 9.52293 3.45173 -0.527 -5.64377 4.04644 1.16275 12.8481 22.5049 -3.53049 -7.46588 0.0354894 -1.29604e-009 8.75243e-006 -1.45933e-008 
167.2 100.227 -0.139242 1.50592 -0.41662 -98.6686 -1.08876 -5.32495 -6.04321 -0.79381 11.2895 -4.64874 2.80411 -6.96387 -0.181743 0.0462048 0.000530889 0.662642 2.14401 -15.9122 -0.399059 0.469437 25.973 -0.918962 1.76716 -9.99026 -3.04382 -40.69 8.76399 -15.0161 -40.4717 -27.0807 -11.1225 -13.2555 13.9872 -10.5732 21.5076 9.12364 1.1403 49.3258 12.7556 18.4866 17.9061 -46.9146 -9.15092 4.66696 20.1349 15.7416 -6.1473 9.49913 3.29106 -0.614082 -5.78083 3.97417 1.14802 13.0252 22.4824 -3.61695 -7.73301 0.0288173 -1.29604e-009 8.75243e-006 -1.45933e-008 
167.113 100.193 0.0941599 1.52295 -0.450683 -98.5749 -1.32297 -5.39065 -6.19595 -0.77757 11.489 -4.55894 2.99095 -7.14302 -0.180473 0.0462048 0.000530889 0.662642 2.30129 -15.3839 -0.392983 0.246036 25.4953 -0.829545 1.89499 -10.2803 -3.00108 -40.6582 8.76689 -15.0351 -40.7659 -27.7278 -11.1206 -13.1999 14.5342 -10.3983 20.9289 9.0926 0.837505 49.4015 12.7762 18.4892 17.8086 -46.9999 -9.02047 4.64809 20.2996 15.634 -6.17704 9.49482 3.34048 -0.774034 -5.86297 3.88721 1.0771 13.2291 22.4328 -3.58637 -8.01409 0.0217085 -1.29604e-009 8.75243e-006 -1.45933e-008 
167.02 100.144 0.37044 1.63079 -0.490923 -98.4802 -1.5335 -5.64212 -6.27868 -0.865297 11.8507 -4.56388 3.32078 -7.30684 -0.179337 0.0462048 0.000530889 0.662642 2.46738 -14.959 -0.340642 0.0223104 25.1158 -0.686343 2.087 -10.5769 -2.9406 -40.4911 8.71652 -14.999 -41.2673 -28.4407 -11.28 -13.2131 15.1638 -10.0845 20.6215 9.08516 0.721565 49.4616 12.7869 18.4814 17.7592 -47.3494 -8.8104 4.67105 20.6 15.2021 -5.88405 9.50814 3.54633 -0.954219 -6.0722 3.76597 0.993711 13.505 22.4184 -3.68614 -8.42236 0.0104355 -1.29604e-009 8.75243e-006 -1.45933e-008 
166.908 100.088 0.683427 1.89317 -0.454879 -98.3649 -1.64154 -5.97347 -6.29312 -0.96365 12.0711 -4.64665 3.67062 -7.4166 -0.17842 0.0462048 0.000530889 0.662642 2.62875 -14.736 -0.250109 -0.0689819 24.8306 -0.55416 2.25412 -10.7543 -2.93838 -40.3936 8.72099 -15.0487 -41.475 -28.6172 -11.2555 -13.2611 15.2784 -9.94993 20.7053 9.0974 0.812678 49.4606 12.7642 18.4427 17.8423 -47.8107 -8.57563 4.70821 20.9517 14.6422 -5.70749 9.51975 3.5959 -1.0598 -6.51252 3.64816 0.934849 14.0137 22.5341 -4.17408 -9.19002 -0.0167792 -1.29604e-009 8.75243e-006 -1.45933e-008 
166.763 100.021 1.05747 2.15175 -0.336931 -98.2325 -1.77801 -6.17481 -6.42824 -0.91643 12.1227 -4.63273 4.00305 -7.55014 -0.177998 0.0462048 0.000530889 0.662642 2.82841 -14.4937 -0.174275 -0.11177 24.5163 -0.457096 2.4432 -11.0582 -2.67155 -40.3668 8.74972 -15.1202 -41.4904 -28.6647 -11.0599 -13.2956 15.1908 -9.9175 20.7755 9.10658 0.882505 49.4469 12.7408 18.4083 17.8833 -48.1213 -8.49162 4.75516 21.2435 14.1569 -5.76345 9.52234 3.42983 -1.11366 -6.99745 3.57865 0.884178 14.7008 22.8701 -4.72529 -10.1771 -0.0588582 -1.29604e-009 8.75243e-006 -1.45933e-008 
166.575 99.9547 1.5021 2.25215 -0.164127 -98.1332 -1.97618 -6.13609 -6.67274 -0.794324 12.1156 -4.55043 4.38846 -7.64484 -0.17778 0.0462048 0.000530889 0.662642 3.06135 -14.0784 -0.123287 -0.173019 24.1836 -0.38168 2.75139 -11.7807 -1.78702 -40.3649 8.74598 -15.1131 -41.603 -29.0801 -10.901 -13.3004 15.3677 -9.79903 20.6212 9.10555 0.840352 49.4536 12.7473 18.4167 17.7264 -48.2044 -8.5823 4.85017 21.4179 13.7335 -5.85174 9.52097 3.29498 -1.17018 -7.24059 3.60433 0.816415 15.2402 23.2971 -4.7732 -10.8973 -0.0859911 -1.29604e-009 8.75243e-006 -1.45933e-008 
